<svg width="40" height="53" viewBox="0 0 40 53" fill="current" xmlns="http://www.w3.org/2000/svg">
<path d="M22.8109 0.850098C23.5143 0.850098 24.191 1.11965 24.7017 1.60331L38.4617 14.6333C39.0101 15.1527 39.3208 15.8748 39.3208 16.6301V50.8892C39.3208 51.5795 38.7612 52.1392 38.0708 52.1392H1.5C0.809645 52.1392 0.25 51.5795 0.25 50.8892V2.1001C0.25 1.40974 0.809644 0.850098 1.5 0.850098H22.8109Z" fill="current" stroke="current" stroke-width="0.5"/>
<path d="M25.4883 3.7241L37.5592 15.1547H28.9883C27.0553 15.1547 25.4883 13.5877 25.4883 11.6547V3.7241Z" fill="current" stroke="current"/>
<path d="M9.07066 34.592V24.2169H10.3261V25.4579H10.4415C10.9177 24.5921 11.7835 24.0798 12.8657 24.0798C14.8354 24.0798 16.1269 25.6743 16.1269 28.0985V28.113C16.1269 30.5516 14.8427 32.1317 12.8657 32.1317C11.7979 32.1317 10.8672 31.5978 10.4415 30.7681H10.3261V34.592H9.07066ZM12.5771 31.0206C13.9985 31.0206 14.8427 29.9239 14.8427 28.113V28.0985C14.8427 26.2876 13.9985 25.1909 12.5771 25.1909C11.163 25.1909 10.2972 26.302 10.2972 28.0985V28.113C10.2972 29.9095 11.163 31.0206 12.5771 31.0206ZM20.5496 32.1317C18.5799 32.1317 17.2884 30.5372 17.2884 28.113V28.0985C17.2884 25.6599 18.5727 24.0798 20.5496 24.0798C21.6174 24.0798 22.5482 24.6137 22.9739 25.4434H23.0893V21.1289H24.3447V31.9946H23.0893V30.7537H22.9739C22.4977 31.6194 21.6319 32.1317 20.5496 32.1317ZM20.8382 31.0206C22.2524 31.0206 23.1182 29.9095 23.1182 28.113V28.0985C23.1182 26.302 22.2524 25.1909 20.8382 25.1909C19.4169 25.1909 18.5727 26.2876 18.5727 28.0985V28.113C18.5727 29.9239 19.4169 31.0206 20.8382 31.0206ZM26.8626 31.9946V25.2558H25.5712V24.2169H26.8626V23.3511C26.8626 21.7999 27.6419 21.0567 29.1209 21.0567C29.424 21.0567 29.6981 21.0784 29.9579 21.1289V22.1317C29.8064 22.1029 29.5971 22.0957 29.3735 22.0957C28.4788 22.0957 28.118 22.5358 28.118 23.3872V24.2169H29.8857V25.2558H28.118V31.9946H26.8626Z" fill="#468CF7"/>
</svg>
